<svg id="svg" version="1.1" xmlns="http://www.w3.org/2000/svg" xmlns:xlink="http://www.w3.org/1999/xlink" width="400" height="400" viewBox="0, 0, 400,400"><g id="svgg"><path id="path0" d="M128.400 102.265 C 127.091 102.401,126.172 102.593,121.600 103.686 C 111.673 106.059,101.556 116.224,97.400 128.000 L 96.200 131.400 96.200 206.800 L 96.200 282.200 97.347 285.600 C 100.164 293.954,106.575 302.394,112.728 305.851 C 113.758 306.429,115.050 307.206,115.600 307.577 C 117.051 308.557,121.342 310.174,124.800 311.045 C 127.686 311.771,130.572 311.800,201.000 311.800 L 274.200 311.800 277.600 310.843 C 292.240 306.720,303.257 294.789,305.178 280.976 C 305.867 276.023,305.728 135.873,305.030 131.962 C 302.724 119.036,291.282 106.271,279.600 103.594 C 278.390 103.316,276.770 102.893,276.000 102.652 C 274.693 102.244,132.199 101.870,128.400 102.265 M274.174 116.422 C 281.895 117.877,288.811 124.645,291.234 133.118 C 292.492 137.518,292.424 276.929,291.162 281.058 C 288.934 288.346,284.160 293.536,276.777 296.697 L 274.200 297.800 200.800 297.800 L 127.400 297.800 124.400 296.491 C 116.912 293.225,111.692 287.208,110.188 280.108 C 109.290 275.871,109.320 138.124,110.219 133.768 C 111.755 126.332,117.341 120.055,125.219 116.911 C 128.061 115.777,268.305 115.317,274.174 116.422 " stroke="none" fill="#000000" fill-rule="evenodd"></path></g></svg>