<svg id="svg" version="1.1" xmlns="http://www.w3.org/2000/svg" xmlns:xlink="http://www.w3.org/1999/xlink" width="400" height="400" viewBox="0, 0, 400,400"><g id="svgg"><path id="path0" d="M339.200 95.022 C 336.450 95.976,333.957 96.767,333.660 96.778 C 333.364 96.790,332.554 97.055,331.860 97.367 C 331.167 97.678,327.100 99.318,322.822 101.011 C 318.544 102.704,312.964 105.083,310.422 106.299 C 298.592 111.955,298.846 111.827,290.400 116.474 C 288.970 117.261,286.954 118.421,285.920 119.052 C 284.886 119.684,282.726 120.999,281.120 121.975 C 270.977 128.142,258.022 137.472,250.261 144.200 C 250.007 144.420,249.080 145.214,248.200 145.965 C 241.777 151.445,230.424 162.539,225.240 168.401 C 220.017 174.306,219.934 174.404,217.189 177.864 C 211.888 184.546,210.736 186.063,208.662 189.095 C 207.494 190.803,205.798 193.280,204.894 194.600 C 202.234 198.480,196.400 208.116,196.400 208.630 C 196.400 208.889,196.156 209.305,195.858 209.552 C 195.305 210.011,194.763 209.232,180.601 187.600 C 176.602 181.492,174.140 177.770,173.061 176.200 C 172.758 175.760,170.218 171.890,167.415 167.600 C 156.679 151.166,157.932 152.342,156.029 156.910 C 155.276 158.720,153.521 162.595,152.129 165.522 C 150.738 168.449,149.600 170.942,149.600 171.061 C 149.600 171.181,149.343 171.846,149.029 172.540 C 148.029 174.746,145.565 180.105,144.219 183.000 C 143.503 184.540,141.971 187.905,140.814 190.478 L 138.710 195.156 141.255 198.056 C 142.655 199.650,145.060 202.328,146.600 204.006 C 148.140 205.684,151.380 209.279,153.800 211.995 C 156.220 214.711,159.042 217.849,160.070 218.967 C 161.099 220.085,162.328 221.450,162.801 222.000 C 163.779 223.136,166.298 225.946,174.245 234.767 C 177.300 238.158,180.587 241.848,181.549 242.967 C 182.511 244.085,184.401 246.182,185.749 247.626 C 187.097 249.070,189.550 251.767,191.200 253.618 C 196.681 259.768,196.732 259.818,197.121 259.400 C 197.480 259.015,199.204 255.836,203.194 248.200 C 204.229 246.220,206.694 241.720,208.672 238.200 C 210.649 234.680,212.870 230.720,213.607 229.400 C 214.344 228.080,215.454 226.248,216.073 225.328 C 216.693 224.408,217.200 223.543,217.200 223.405 C 217.200 222.598,231.263 200.716,236.098 194.000 C 244.523 182.296,251.175 174.013,261.153 162.800 C 273.783 148.606,294.347 130.189,313.840 115.614 C 324.996 107.272,337.756 98.197,341.400 96.011 C 346.505 92.951,345.924 92.690,339.200 95.022 M128.600 102.276 C 113.242 104.273,101.304 114.791,97.133 130.000 L 96.200 133.400 96.200 207.000 L 96.200 280.600 97.124 284.000 C 100.768 297.402,111.028 307.502,124.400 310.849 L 128.200 311.800 201.000 311.800 L 273.800 311.800 277.600 310.849 C 291.238 307.434,301.711 296.932,304.921 283.453 L 305.790 279.800 305.905 209.205 C 306.013 142.378,305.887 132.527,304.909 131.549 C 304.527 131.167,302.994 132.333,295.700 138.551 L 292.003 141.703 292.002 209.828 C 292.002 255.443,291.864 278.655,291.585 280.077 C 290.022 288.037,282.193 295.829,274.000 297.577 C 272.350 297.929,253.752 298.016,199.600 297.923 L 127.400 297.800 124.974 296.758 C 117.555 293.572,111.876 287.116,110.408 280.200 C 110.115 278.821,110.017 255.671,110.092 205.600 L 110.200 133.000 111.200 130.687 C 114.357 123.383,120.676 117.869,127.525 116.441 C 130.602 115.799,271.097 115.814,274.583 116.456 L 277.080 116.916 280.040 115.000 C 281.668 113.947,284.674 112.190,286.720 111.096 C 291.159 108.723,291.159 108.724,285.498 105.863 C 281.965 104.078,279.073 103.220,273.800 102.393 C 271.528 102.036,131.310 101.923,128.600 102.276 " stroke="none" fill="#000000" fill-rule="evenodd"></path></g></svg>